<svg viewBox="0 0 1769 956" xmlns="http://www.w3.org/2000/svg"><g fill="#ffffffff"><path d="m827 287.57v-87.57h-184v540h192v-260.83c37.69-76.07 87.15-106.17 171-106.17 24 0 39 3 63 11v-184c-20-5-34-7-59-7-85.33 0-135.65 29-183 94.57z"/><path d="m566 200h-192c4 120.75-53.81 182.71-182 184v-384h-192v740h192v-184a567.46 567.46 0 0 0 82.84-6.3l95.16 190.3h219l-144.88-259.17c77.46-60.67 119.11-156.35 121.88-280.83z"/><path d="m1572 200-121.68 355.81-120.32-355.81h-207l205.21 537.55c-13 27.74-52.64 40.45-115.21 40.45-48 0-85-6-128-22v178c46 16 91 22 136 22 205 0 309-130 388-336l160-420z"/></g></svg>