<svg xmlns="http://www.w3.org/2000/svg" width="40" height="69.282">
  <defs>
    <pattern id="smallPattern" x="0" y="0" width="8" height="13.8564" patternUnits="userSpaceOnUse">
      <rect width="100%" height="100%" fill="#2b2b31"/>
      <path fill="none" stroke="#ecc94b" stroke-width=".1" d="M2.6666-.7698v4.6188M1.3334-3.0792l4 2.3094M2.6666-3.849l4 2.3094M4 0v4.6188m4-6.9282-1.3334.7698-1.3332.7698L4 0M0-2.3094l1.3334.7698 1.3332.7698L4 0m0-4.6188 4 2.3094v4.6188L4 4.6188l-1.3334-.7698-1.3332-.7698L0 2.3094v-4.6188l1.3334-.7698 1.3332-.7698zM8-.7538 4 1.5396m4-.7698-3.2506 1.8768L4 3.0792M1.3334-1.5396v4.6188m1.3332 10.0074v4.6188M1.3334 10.7772l4 2.3094M2.6666 10.0074l4 2.3094M4 13.8564v4.6188m4-6.9282-1.3334.7698-1.3332.7698L4 13.8564M0 11.547l1.3334.7698 1.3332.7698L4 13.8564m0-4.6188 4 2.3094v4.6188L4 18.4752l-1.3334-.7698-1.3332-.7698L0 16.1658V11.547l1.3334-.7698 1.3332-.7698zm4 3.865L4 15.396m4-.7698L4 16.9356M1.3334 12.3168v4.6188m5.3332-10.7772v4.6188m-1.3332-6.9282 4 2.3094M6.6666 3.0792l4 2.3094M8 6.9282v4.6188m4-6.9282-1.3334.7698-1.3332.7698L8 6.9282M4 4.6188l1.3334.7698 1.3332.7698L8 6.9282m0-4.6188 4 2.3094v4.6188L8 11.547l-1.3334-.7698-1.3332-.7698L4 9.2376V4.6188l1.3334-.7698 1.3332-.7698zm4 3.865L8 8.4678m4-.7698L8 10.0074M5.3334 5.3886v4.6188M-1.3334 6.1584v4.6188m-1.3332-6.9282 4 2.3094M-1.3334 3.0792l4 2.3094M0 6.9282v4.6188m4-6.9282-1.3334.7698-1.3332.7698L0 6.9282m-4-2.3094 1.3334.7698 1.3332.7698L0 6.9282m0-4.6188 4 2.3094v4.6188L0 11.547l-1.3334-.7698-1.3332-.7698L-4 9.2376V4.6188l1.3334-.7698 1.3332-.7698zm4 3.865L0 8.4678m4-.7698L0 10.0074m-2.6666-4.6188v4.6188"/>
    </pattern>
  </defs>
  <rect width="100%" height="100%" fill="url(#smallPattern)"/>
</svg>